<svg width="178" height="178" viewBox="0 0 178 178" fill="none" xmlns="http://www.w3.org/2000/svg">
<g filter="url(#filter0_di_123_273)">
<circle cx="89.1426" cy="84.5803" r="84.5161" fill="url(#paint0_linear_123_273)"/>
</g>
<circle cx="89.1434" cy="84.5803" r="48.1263" fill="#18204D"/>
<path d="M109.46 114.133C106.66 114.133 103.922 113.302 101.593 111.746C99.2647 110.19 97.4497 107.979 96.378 105.391C95.3062 102.804 95.0258 99.9565 95.5722 97.2097C96.1185 94.4628 97.4672 91.9397 99.4475 89.9593C101.428 87.979 103.951 86.6303 106.698 86.0839C109.445 85.5376 112.292 85.818 114.879 86.8897C117.467 87.9615 119.678 89.7765 121.234 92.1051C122.79 94.4338 123.621 97.1716 123.621 99.9722C123.617 103.727 122.124 107.326 119.469 109.981C116.814 112.635 113.215 114.128 109.46 114.133ZM109.46 90.7372C107.634 90.7372 105.848 91.2788 104.33 92.2936C102.811 93.3083 101.627 94.7506 100.928 96.4381C100.229 98.1256 100.047 99.9825 100.403 101.774C100.759 103.565 101.639 105.211 102.93 106.502C104.222 107.794 105.867 108.673 107.659 109.03C109.45 109.386 111.307 109.203 112.995 108.504C114.682 107.805 116.124 106.622 117.139 105.103C118.154 103.584 118.695 101.799 118.695 99.9722C118.693 97.5238 117.719 95.1765 115.987 93.4452C114.256 91.7139 111.909 90.74 109.46 90.7372ZM68.8264 114.133C66.0257 114.133 63.288 113.302 60.9593 111.746C58.6306 110.19 56.8157 107.979 55.7439 105.391C54.6722 102.804 54.3917 99.9565 54.9381 97.2097C55.4845 94.4628 56.8331 91.9397 58.8135 89.9593C60.7939 87.979 63.317 86.6303 66.0638 86.0839C68.8107 85.5376 71.6578 85.818 74.2453 86.8897C76.8328 87.9615 79.0443 89.7765 80.6003 92.1051C82.1562 94.4338 82.9867 97.1716 82.9867 99.9722C82.9827 103.727 81.4895 107.326 78.8348 109.981C76.1801 112.635 72.5807 114.128 68.8264 114.133ZM68.8264 90.7372C66.9999 90.7372 65.2144 91.2788 63.6957 92.2936C62.177 93.3083 60.9933 94.7506 60.2943 96.4381C59.5954 98.1256 59.4125 99.9825 59.7688 101.774C60.1251 103.565 61.0047 105.211 62.2962 106.502C63.5878 107.794 65.2333 108.673 67.0247 109.03C68.8161 109.386 70.673 109.203 72.3605 108.504C74.0479 107.805 75.4903 106.622 76.505 105.103C77.5198 103.584 78.0614 101.799 78.0614 99.9722C78.0585 97.5238 77.0847 95.1765 75.3534 93.4452C73.6221 91.7139 71.2748 90.74 68.8264 90.7372ZM98.9941 64.8792C99.6428 64.8814 100.286 64.755 100.885 64.5073C101.485 64.2597 102.029 63.8956 102.487 63.4361C102.945 62.9767 103.308 62.431 103.554 61.8306C103.799 61.2303 103.924 60.5871 103.919 59.9384C103.927 59.2929 103.805 58.6525 103.562 58.0546C103.319 57.4566 102.959 56.9132 102.503 56.456C102.047 55.9989 101.505 55.6371 100.908 55.392C100.31 55.1469 99.6704 55.0233 99.0249 55.0285C98.3781 55.0265 97.7372 55.1518 97.1389 55.3975C96.5405 55.6432 95.9964 56.0043 95.5376 56.4602C95.0788 56.9161 94.7143 57.458 94.4649 58.0547C94.2156 58.6515 94.0862 59.2916 94.0841 59.9384C94.0821 60.5852 94.2075 61.2261 94.4532 61.8244C94.6988 62.4228 95.0599 62.9669 95.5159 63.4257C95.9718 63.8845 96.5136 64.249 97.1104 64.4983C97.7072 64.7477 98.3473 64.8771 98.9941 64.8792Z" fill="#00CFFD"/>
<path d="M106.313 74.7299H99.5777C99.4672 74.7299 99.3588 74.7002 99.2637 74.6439C99.1687 74.5876 99.0905 74.5067 99.0375 74.4098L94.1522 65.4564C93.8079 64.7911 93.3119 64.2161 92.7042 63.7781C92.0964 63.34 91.3941 63.0513 90.654 62.9351C89.914 62.819 89.157 62.8787 88.4443 63.1095C87.7316 63.3403 87.0832 63.7356 86.5517 64.2636L75.7991 75.0993C74.8958 76.0213 74.383 77.2564 74.3677 78.5471C74.3677 81.2252 76.307 82.1795 77.2151 82.7182C81.6018 85.2455 84.6909 87.0941 86.3855 88.1207C86.4756 88.1755 86.5501 88.2526 86.6018 88.3445C86.6536 88.4364 86.6809 88.5401 86.681 88.6455V99.2843C86.681 100.61 87.7 101.747 89.0252 101.813C89.3579 101.829 89.6904 101.778 90.0026 101.661C90.3148 101.545 90.6002 101.367 90.8415 101.137C91.0828 100.908 91.275 100.631 91.4064 100.325C91.5379 100.019 91.6059 99.6897 91.6064 99.3566V86.1198C91.6066 85.7288 91.5137 85.3434 91.3355 84.9955C91.1572 84.6476 90.8987 84.3471 90.5813 84.1188L84.8864 80.0231C84.8149 79.972 84.7552 79.9061 84.7113 79.83C84.6674 79.7538 84.6403 79.6692 84.6318 79.5817C84.6233 79.4942 84.6337 79.4059 84.6622 79.3227C84.6907 79.2396 84.7367 79.1635 84.7971 79.0996L91.2616 72.2057C91.3279 72.1348 91.41 72.0805 91.5012 72.0474C91.5925 72.0142 91.6903 72.0031 91.7866 72.015C91.883 72.0268 91.9751 72.0613 92.0556 72.1156C92.1361 72.1699 92.2026 72.2424 92.2497 72.3273L95.6082 78.3885C95.8217 78.7728 96.1341 79.0929 96.513 79.3156C96.8919 79.5383 97.3235 79.6556 97.763 79.6553H106.382C106.716 79.6556 107.046 79.5882 107.353 79.4571C107.66 79.326 107.937 79.134 108.167 78.8926C108.397 78.6512 108.576 78.3655 108.693 78.0529C108.809 77.7403 108.861 77.4073 108.845 77.0741C108.78 75.7488 107.638 74.7299 106.313 74.7299Z" fill="#00CFFD"/>
<defs>
<filter id="filter0_di_123_273" x="0.626465" y="0.0641479" width="177.032" height="177.032" filterUnits="userSpaceOnUse" color-interpolation-filters="sRGB">
<feFlood flood-opacity="0" result="BackgroundImageFix"/>
<feColorMatrix in="SourceAlpha" type="matrix" values="0 0 0 0 0 0 0 0 0 0 0 0 0 0 0 0 0 0 127 0" result="hardAlpha"/>
<feOffset dy="4"/>
<feGaussianBlur stdDeviation="2"/>
<feComposite in2="hardAlpha" operator="out"/>
<feColorMatrix type="matrix" values="0 0 0 0 0 0 0 0 0 0 0 0 0 0 0 0 0 0 0.2 0"/>
<feBlend mode="normal" in2="BackgroundImageFix" result="effect1_dropShadow_123_273"/>
<feBlend mode="normal" in="SourceGraphic" in2="effect1_dropShadow_123_273" result="shape"/>
<feColorMatrix in="SourceAlpha" type="matrix" values="0 0 0 0 0 0 0 0 0 0 0 0 0 0 0 0 0 0 127 0" result="hardAlpha"/>
<feOffset dx="3" dy="3"/>
<feGaussianBlur stdDeviation="5"/>
<feComposite in2="hardAlpha" operator="arithmetic" k2="-1" k3="1"/>
<feColorMatrix type="matrix" values="0 0 0 0 1 0 0 0 0 1 0 0 0 0 1 0 0 0 0.72 0"/>
<feBlend mode="normal" in2="shape" result="effect2_innerShadow_123_273"/>
</filter>
<linearGradient id="paint0_linear_123_273" x1="145.281" y1="169.096" x2="7.09263" y2="-1.92852" gradientUnits="userSpaceOnUse">
<stop stop-color="#CDDCF7"/>
<stop offset="1" stop-color="white"/>
</linearGradient>
</defs>
</svg>
