<svg width="178" height="178" viewBox="0 0 178 178" fill="none" xmlns="http://www.w3.org/2000/svg">
<g filter="url(#filter0_di_123_298)">
<circle cx="88.7715" cy="85.3879" r="84.5161" fill="url(#paint0_linear_123_298)"/>
</g>
<circle cx="88.7723" cy="85.388" r="48.1263" fill="#18204D"/>
<rect x="54.1353" y="96.9033" width="9.84751" height="23.3375" transform="rotate(-34.1966 54.1353 96.9033)" fill="#00CFFD"/>
<rect width="9.84751" height="23.3375" transform="matrix(-0.827114 -0.562034 -0.562034 0.827114 123.41 96.9033)" fill="#00CFFD"/>
<rect x="65.2349" y="94.8741" width="4.53197" height="11.7217" transform="rotate(-34.1966 65.2349 94.8741)" fill="#00CFFD"/>
<rect width="4.53197" height="11.7217" transform="matrix(-0.827114 -0.562034 -0.562034 0.827114 112.312 94.8741)" fill="#00CFFD"/>
<path fill-rule="evenodd" clip-rule="evenodd" d="M100.226 101.992C100.226 108.325 95.0922 113.459 88.7589 113.459C82.4256 113.459 77.2915 108.325 77.2915 101.992C77.2915 95.6584 82.4256 90.5242 88.7589 90.5242C95.0922 90.5242 100.226 95.6584 100.226 101.992ZM78.3131 101.992C78.3131 107.761 82.9898 112.437 88.7589 112.437C94.528 112.437 99.2047 107.761 99.2047 101.992C99.2047 96.2226 94.528 91.5458 88.7589 91.5458C82.9898 91.5458 78.3131 96.2226 78.3131 101.992Z" fill="#00CFFD"/>
<path fill-rule="evenodd" clip-rule="evenodd" d="M78.1958 69.4499C77.6438 69.3123 77.0663 69.2393 76.4717 69.2393C72.5468 69.2393 69.365 72.4211 69.365 76.346C69.365 80.2709 72.5468 83.4527 76.4717 83.4527C77.0663 83.4527 77.6438 83.3797 78.1957 83.2421C77.1339 83.7887 75.9295 84.0972 74.6531 84.0972C70.3722 84.0972 66.9019 80.6269 66.9019 76.346C66.9019 72.0651 70.3722 68.5947 74.6531 68.5947C75.9296 68.5947 77.134 68.9033 78.1958 69.4499Z" fill="#00CFFD"/>
<path fill-rule="evenodd" clip-rule="evenodd" d="M100.722 101.615C105.63 96.3114 108.809 87.826 108.809 78.263C108.809 62.1932 99.832 49.166 88.7584 49.166C78.4396 49.166 69.9413 60.4781 68.8309 75.0231C69.4508 71.7303 72.3418 69.2392 75.8147 69.2392C79.7396 69.2392 82.9214 72.421 82.9214 76.3459C82.9214 80.2708 79.7396 83.4526 75.8147 83.4526C72.0773 83.4526 69.0137 80.5675 68.7295 76.903C68.7152 77.3537 68.708 77.8072 68.708 78.263C68.708 87.8451 71.8997 96.3454 76.8245 101.647C76.824 101.602 76.8237 101.556 76.8237 101.51C76.8237 94.911 82.1736 89.5611 88.773 89.5611C95.3725 89.5611 100.722 94.911 100.722 101.51C100.722 101.545 100.722 101.58 100.722 101.615ZM95.4899 105.68C95.4495 105.626 95.4048 105.574 95.3559 105.526L93.3729 103.542C92.8077 102.977 91.8915 102.977 91.3264 103.542C90.7613 104.108 90.7613 105.024 91.3264 105.589L92.5719 106.834C93.5731 106.555 94.5478 106.167 95.4899 105.68ZM84.9451 106.835L86.1907 105.589C86.7558 105.024 86.7558 104.108 86.1907 103.542C85.6256 102.977 84.7094 102.977 84.1443 103.542L82.1612 105.526C82.1123 105.574 82.0676 105.626 82.0271 105.68C82.9693 106.167 83.944 106.555 84.9451 106.835ZM107.144 76.5302C107.144 80.4551 103.962 83.6369 100.037 83.6369C96.1122 83.6369 92.9304 80.4551 92.9304 76.5302C92.9304 72.6053 96.1122 69.4235 100.037 69.4235C103.962 69.4235 107.144 72.6053 107.144 76.5302ZM81.834 95.999C81.2689 96.5641 81.2689 97.4803 81.834 98.0454L83.8171 100.029C84.3822 100.594 85.2984 100.594 85.8636 100.029C86.4287 99.4634 86.4287 98.5472 85.8636 97.9821L83.8805 95.999C83.3154 95.4339 82.3991 95.4339 81.834 95.999ZM95.0269 95.999C95.5921 96.5641 95.5921 97.4803 95.0269 98.0454L93.0439 100.029C92.4787 100.594 91.5625 100.594 90.9974 100.029C90.4323 99.4634 90.4323 98.5472 90.9974 97.9821L92.9805 95.999C93.5456 95.4339 94.4618 95.4339 95.0269 95.999Z" fill="#00CFFD"/>
<path fill-rule="evenodd" clip-rule="evenodd" d="M103.197 83.637C107.477 83.637 110.948 80.1666 110.948 75.8857C110.948 71.6048 107.477 68.1345 103.197 68.1345C101.539 68.1345 100.002 68.6549 98.7422 69.5413C99.1622 69.464 99.5951 69.4236 100.037 69.4236C103.962 69.4236 107.144 72.6054 107.144 76.5303C107.144 79.9247 104.764 82.7633 101.582 83.4686C102.103 83.5789 102.643 83.637 103.197 83.637Z" fill="#00CFFD"/>
<defs>
<filter id="filter0_di_123_298" x="0.255371" y="0.871826" width="177.032" height="177.032" filterUnits="userSpaceOnUse" color-interpolation-filters="sRGB">
<feFlood flood-opacity="0" result="BackgroundImageFix"/>
<feColorMatrix in="SourceAlpha" type="matrix" values="0 0 0 0 0 0 0 0 0 0 0 0 0 0 0 0 0 0 127 0" result="hardAlpha"/>
<feOffset dy="4"/>
<feGaussianBlur stdDeviation="2"/>
<feComposite in2="hardAlpha" operator="out"/>
<feColorMatrix type="matrix" values="0 0 0 0 0 0 0 0 0 0 0 0 0 0 0 0 0 0 0.2 0"/>
<feBlend mode="normal" in2="BackgroundImageFix" result="effect1_dropShadow_123_298"/>
<feBlend mode="normal" in="SourceGraphic" in2="effect1_dropShadow_123_298" result="shape"/>
<feColorMatrix in="SourceAlpha" type="matrix" values="0 0 0 0 0 0 0 0 0 0 0 0 0 0 0 0 0 0 127 0" result="hardAlpha"/>
<feOffset dx="3" dy="3"/>
<feGaussianBlur stdDeviation="5"/>
<feComposite in2="hardAlpha" operator="arithmetic" k2="-1" k3="1"/>
<feColorMatrix type="matrix" values="0 0 0 0 1 0 0 0 0 1 0 0 0 0 1 0 0 0 0.72 0"/>
<feBlend mode="normal" in2="shape" result="effect2_innerShadow_123_298"/>
</filter>
<linearGradient id="paint0_linear_123_298" x1="144.91" y1="169.904" x2="6.72154" y2="-1.12084" gradientUnits="userSpaceOnUse">
<stop stop-color="#CDDCF7"/>
<stop offset="1" stop-color="white"/>
</linearGradient>
</defs>
</svg>
