<svg width="178" height="178" viewBox="0 0 178 178" fill="none" xmlns="http://www.w3.org/2000/svg">
<g filter="url(#filter0_di_123_288)">
<circle cx="88.5229" cy="84.5806" r="84.5161" fill="url(#paint0_linear_123_288)"/>
</g>
<circle cx="88.5238" cy="84.5807" r="48.1263" fill="#18204D"/>
<path d="M120.971 88.8731C119.452 86.811 116.555 86.3653 114.495 87.8925L100.636 98.1009H86.6733C85.6605 98.1009 84.9251 97.2615 84.9251 96.2495C84.9251 95.2365 85.7645 94.3971 86.6733 94.3971H95.7331C97.4814 94.3971 99.2934 93.1374 99.5967 91.315C99.973 88.9994 98.1935 86.9871 95.9358 86.9871H77.3102C74.2883 86.9871 71.1599 88.0581 68.7285 90.0264L63.3448 94.3959L56.9329 94.2916C56.0241 94.2916 55.1846 95.241 55.1846 96.2483V107.361C55.1846 108.382 56.0241 109.216 56.9329 109.216H97.0044C99.5551 109.216 102.089 108.383 104.148 106.869L119.79 95.3463C122.048 93.8285 122.488 90.934 120.971 88.8731ZM73.7094 70.3135H81.1194V77.7234C81.1194 78.7423 81.953 79.5759 82.9718 79.5759H90.3818C91.4006 79.5759 92.2343 78.7423 92.2343 77.7234V70.3135H99.6442C100.667 70.3135 101.497 69.484 101.497 68.461V61.0511C101.497 60.0278 100.667 59.1986 99.6442 59.1986H92.2343V51.7886C92.2343 50.7654 91.4006 49.9362 90.3818 49.9362H82.9718C81.953 49.9362 81.1194 50.7654 81.1194 51.7886V59.1986H73.7094C72.6905 59.1986 71.8569 60.0276 71.8569 61.0511V68.461C71.8569 69.4799 72.6905 70.3135 73.7094 70.3135Z" fill="#00CFFD"/>
<defs>
<filter id="filter0_di_123_288" x="0.00683594" y="0.0645142" width="177.032" height="177.032" filterUnits="userSpaceOnUse" color-interpolation-filters="sRGB">
<feFlood flood-opacity="0" result="BackgroundImageFix"/>
<feColorMatrix in="SourceAlpha" type="matrix" values="0 0 0 0 0 0 0 0 0 0 0 0 0 0 0 0 0 0 127 0" result="hardAlpha"/>
<feOffset dy="4"/>
<feGaussianBlur stdDeviation="2"/>
<feComposite in2="hardAlpha" operator="out"/>
<feColorMatrix type="matrix" values="0 0 0 0 0 0 0 0 0 0 0 0 0 0 0 0 0 0 0.2 0"/>
<feBlend mode="normal" in2="BackgroundImageFix" result="effect1_dropShadow_123_288"/>
<feBlend mode="normal" in="SourceGraphic" in2="effect1_dropShadow_123_288" result="shape"/>
<feColorMatrix in="SourceAlpha" type="matrix" values="0 0 0 0 0 0 0 0 0 0 0 0 0 0 0 0 0 0 127 0" result="hardAlpha"/>
<feOffset dx="3" dy="3"/>
<feGaussianBlur stdDeviation="5"/>
<feComposite in2="hardAlpha" operator="arithmetic" k2="-1" k3="1"/>
<feColorMatrix type="matrix" values="0 0 0 0 1 0 0 0 0 1 0 0 0 0 1 0 0 0 0.72 0"/>
<feBlend mode="normal" in2="shape" result="effect2_innerShadow_123_288"/>
</filter>
<linearGradient id="paint0_linear_123_288" x1="144.661" y1="169.097" x2="6.473" y2="-1.92815" gradientUnits="userSpaceOnUse">
<stop stop-color="#CDDCF7"/>
<stop offset="1" stop-color="white"/>
</linearGradient>
</defs>
</svg>
