<svg width="178" height="178" viewBox="0 0 178 178" fill="none" xmlns="http://www.w3.org/2000/svg">
<g filter="url(#filter0_di_123_278)">
<circle cx="88.936" cy="84.5804" r="84.5161" fill="url(#paint0_linear_123_278)"/>
</g>
<circle cx="88.9369" cy="84.5804" r="48.1263" fill="#18204D"/>
<path d="M76.2763 66.2584C77.8629 66.2584 79.3844 65.6281 80.5062 64.5063C81.628 63.3845 82.2583 61.8629 82.2583 60.2764C82.2583 58.6899 81.628 57.1684 80.5062 56.0466C79.3844 54.9247 77.8629 54.2945 76.2763 54.2945C74.6898 54.2945 73.1683 54.9247 72.0465 56.0466C70.9246 57.1684 70.2944 58.6899 70.2944 60.2764C70.2944 61.8629 70.9246 63.3845 72.0465 64.5063C73.1683 65.6281 74.6898 66.2584 76.2763 66.2584ZM64.2593 71.9505C62.6016 72.3626 61.4704 72.9821 60.5571 73.7504C59.1879 74.9043 58.0819 76.5686 56.5878 79.1847C56.2379 79.7969 55.6591 80.245 54.9788 80.4305C54.2984 80.616 53.5723 80.5236 52.9601 80.1737C52.3478 79.8238 51.8997 79.245 51.7142 78.5647C51.5288 77.8843 51.6211 77.1582 51.9711 76.546C53.4586 73.9445 54.962 71.5105 57.1328 69.684C59.398 67.7751 62.1709 66.6957 65.9103 66.2796C67.4736 66.1068 69.1937 66.1414 70.8062 66.8606C72.4984 67.6169 73.7347 68.9715 74.5775 70.7821C75.7127 73.2187 76.5568 74.669 77.2321 75.5091C77.5578 75.9132 77.7851 76.1007 77.9141 76.1844C78.0164 76.2509 78.0603 76.2562 78.0762 76.2589H78.0776C78.1932 76.2721 78.5681 76.2589 79.6688 75.771C80.1486 75.5583 80.6724 75.3031 81.3131 74.9907L81.466 74.9162C82.2496 74.5295 83.0402 74.1573 83.8375 73.7996C84.4812 73.517 85.2106 73.5009 85.8661 73.7547C86.5217 74.0085 87.05 74.5116 87.3356 75.1539C87.6212 75.7962 87.6407 76.5255 87.39 77.1823C87.1393 77.839 86.6387 78.3697 85.9977 78.6583C85.2589 78.9899 84.5263 79.3351 83.8003 79.6938L83.6262 79.7789C83.0133 80.078 82.3965 80.3797 81.8183 80.635C80.6219 81.164 79.0932 81.7383 77.4355 81.5376C75.6861 81.3249 74.3382 80.3372 73.2282 79.0119L69.5952 86.0214L74.62 92.559C74.9191 92.9498 75.1039 93.4151 75.1557 93.9042L76.2617 104.533C76.3039 104.884 76.2759 105.239 76.1794 105.578C76.083 105.917 75.92 106.234 75.6999 106.51C75.4799 106.785 75.2072 107.015 74.8977 107.184C74.5882 107.353 74.2482 107.459 73.8973 107.495C73.5465 107.532 73.1919 107.498 72.8542 107.396C72.5165 107.295 72.2025 107.126 71.9304 106.902C71.6583 106.678 71.4335 106.401 71.2693 106.089C71.105 105.777 71.0046 105.435 70.9737 105.084L69.9448 95.203L66.8927 91.231L66.8661 91.2802L66.7544 91.0515L61.1154 83.7137C60.8382 83.353 60.6582 82.9273 60.5926 82.4771C60.5269 82.027 60.5779 81.5676 60.7406 81.1428L64.2593 71.9505Z" fill="#00CFFD"/>
<path d="M60.2334 87.5368L58.2766 92.8009L50.5666 92.1894C50.216 92.1569 49.8625 92.1943 49.5266 92.2994C49.1906 92.4046 48.8788 92.5754 48.6094 92.802C48.34 93.0286 48.1183 93.3065 47.9571 93.6195C47.7959 93.9325 47.6985 94.2744 47.6705 94.6253C47.6425 94.9762 47.6845 95.3292 47.794 95.6638C47.9036 95.9984 48.0785 96.3079 48.3085 96.5743C48.5386 96.8408 48.8194 97.0589 49.1344 97.216C49.4495 97.373 49.7926 97.466 50.1439 97.4894L59.8585 98.2604C60.4351 98.3063 61.0109 98.1629 61.4986 97.852C61.9863 97.5411 62.3593 97.0797 62.561 96.5376L64.0565 92.5124L60.2334 87.5368Z" fill="#00CFFD"/>
<path fill-rule="evenodd" clip-rule="evenodd" d="M90.5225 75.971H115.563V78.2213H115.563L115.563 103.262H110.023L110.023 81.511H96.0625L96.0625 98.06H90.5225L90.5225 81.511H90.5225V75.971Z" fill="#00CFFD"/>
<path fill-rule="evenodd" clip-rule="evenodd" d="M116.575 80.398H130.211V85.3757H116.575V80.398ZM130.209 85.3758V103.262H124.669V85.3758H130.209ZM107.508 99.9139L107.508 82.0888L103.045 82.0888L103.045 99.9139L107.508 99.9139Z" fill="#00CFFD"/>
<defs>
<filter id="filter0_di_123_278" x="0.419922" y="0.06427" width="177.032" height="177.032" filterUnits="userSpaceOnUse" color-interpolation-filters="sRGB">
<feFlood flood-opacity="0" result="BackgroundImageFix"/>
<feColorMatrix in="SourceAlpha" type="matrix" values="0 0 0 0 0 0 0 0 0 0 0 0 0 0 0 0 0 0 127 0" result="hardAlpha"/>
<feOffset dy="4"/>
<feGaussianBlur stdDeviation="2"/>
<feComposite in2="hardAlpha" operator="out"/>
<feColorMatrix type="matrix" values="0 0 0 0 0 0 0 0 0 0 0 0 0 0 0 0 0 0 0.2 0"/>
<feBlend mode="normal" in2="BackgroundImageFix" result="effect1_dropShadow_123_278"/>
<feBlend mode="normal" in="SourceGraphic" in2="effect1_dropShadow_123_278" result="shape"/>
<feColorMatrix in="SourceAlpha" type="matrix" values="0 0 0 0 0 0 0 0 0 0 0 0 0 0 0 0 0 0 127 0" result="hardAlpha"/>
<feOffset dx="3" dy="3"/>
<feGaussianBlur stdDeviation="5"/>
<feComposite in2="hardAlpha" operator="arithmetic" k2="-1" k3="1"/>
<feColorMatrix type="matrix" values="0 0 0 0 1 0 0 0 0 1 0 0 0 0 1 0 0 0 0.72 0"/>
<feBlend mode="normal" in2="shape" result="effect2_innerShadow_123_278"/>
</filter>
<linearGradient id="paint0_linear_123_278" x1="145.074" y1="169.097" x2="6.88609" y2="-1.9284" gradientUnits="userSpaceOnUse">
<stop stop-color="#CDDCF7"/>
<stop offset="1" stop-color="white"/>
</linearGradient>
</defs>
</svg>
