<svg width="20" height="20" viewBox="0 0 20 20" fill="none" xmlns="http://www.w3.org/2000/svg">
<path d="M14.4027 3.56041L16.5207 5.67741L14.4027 3.56041ZM15.7647 1.69541L10.0377 7.42242C9.7418 7.71791 9.53999 8.0944 9.45771 8.50442L8.92871 11.1524L11.5767 10.6224C11.9867 10.5404 12.3627 10.3394 12.6587 10.0434L18.3857 4.31641C18.5578 4.14432 18.6943 3.94001 18.7875 3.71515C18.8806 3.4903 18.9285 3.2493 18.9285 3.00591C18.9285 2.76253 18.8806 2.52153 18.7875 2.29668C18.6943 2.07182 18.5578 1.86751 18.3857 1.69541C18.2136 1.52332 18.0093 1.3868 17.7844 1.29366C17.5596 1.20053 17.3186 1.15259 17.0752 1.15259C16.8318 1.15259 16.5908 1.20053 16.366 1.29366C16.1411 1.3868 15.9368 1.52332 15.7647 1.69541V1.69541Z" stroke="#4C5762" stroke-width="2" stroke-linecap="round" stroke-linejoin="round"/>
<path d="M16.9287 13.1523V16.1523C16.9287 16.6828 16.718 17.1915 16.3429 17.5666C15.9679 17.9416 15.4591 18.1523 14.9287 18.1523H3.92871C3.39828 18.1523 2.88957 17.9416 2.5145 17.5666C2.13942 17.1915 1.92871 16.6828 1.92871 16.1523V5.15234C1.92871 4.62191 2.13942 4.1132 2.5145 3.73813C2.88957 3.36306 3.39828 3.15234 3.92871 3.15234H6.92871" stroke="#4C5762" stroke-width="2" stroke-linecap="round" stroke-linejoin="round"/>
</svg>
