<svg width="21" height="21" viewBox="0 0 21 21" fill="none" xmlns="http://www.w3.org/2000/svg">
<path fill-rule="evenodd" clip-rule="evenodd" d="M10.297 18.8103C15.0101 18.8103 18.8308 14.9896 18.8308 10.2765C18.8308 5.56347 15.0101 1.74277 10.297 1.74277C5.58398 1.74277 1.76328 5.56347 1.76328 10.2765C1.76328 14.9896 5.58398 18.8103 10.297 18.8103ZM10.297 20.5531C15.9726 20.5531 20.5736 15.9521 20.5736 10.2765C20.5736 4.60096 15.9726 0 10.297 0C4.62147 0 0.0205078 4.60096 0.0205078 10.2765C0.0205078 15.9521 4.62147 20.5531 10.297 20.5531Z" fill="#858585"/>
<path d="M10.2991 7.59166C9.88478 7.59166 9.58203 7.51597 9.39083 7.3646C9.20759 7.20526 9.11597 6.95829 9.11597 6.62367C9.11597 6.28109 9.20759 6.03412 9.39083 5.88275C9.58203 5.72341 9.88478 5.64374 10.2991 5.64374C10.7054 5.64374 11.0041 5.72341 11.1953 5.88275C11.3866 6.03412 11.4822 6.28109 11.4822 6.62367C11.4822 6.95829 11.3866 7.20526 11.1953 7.3646C11.0041 7.51597 10.7054 7.59166 10.2991 7.59166ZM11.3148 8.28479V14.26H9.28327V8.28479H11.3148Z" fill="#858585"/>
<rect x="7.99634" y="8.2338" width="4.60154" height="0.493382" fill="#858585"/>
<rect x="7.99829" y="14.0133" width="4.60154" height="0.493382" fill="#858585"/>
</svg>
