<svg width="27" height="29" viewBox="0 0 27 29" fill="none" xmlns="http://www.w3.org/2000/svg">
<path d="M22.8831 11.2429H4.28279C2.81527 11.2429 1.62561 12.4326 1.62561 13.9001V24.5288C1.62561 25.9963 2.81527 27.186 4.28279 27.186H22.8831C24.3506 27.186 25.5402 25.9963 25.5402 24.5288V13.9001C25.5402 12.4326 24.3506 11.2429 22.8831 11.2429Z" stroke="#F24E1E" stroke-width="2" stroke-linecap="round" stroke-linejoin="round"/>
<path d="M5.61133 5.92864C5.61133 4.87155 6.03126 3.85775 6.77873 3.11028C7.52621 2.3628 8.54001 1.94287 9.5971 1.94287H17.5686C18.6257 1.94287 19.6395 2.3628 20.387 3.11028C21.1345 3.85775 21.5544 4.87155 21.5544 5.92864V11.243H5.61133V5.92864Z" stroke="#F24E1E" stroke-width="2" stroke-linecap="round" stroke-linejoin="round"/>
<rect x="12.085" y="16.9277" width="2.99605" height="5.49481" rx="1.49802" fill="#F24E1E"/>
</svg>
