<svg width="15" height="18" viewBox="0 0 15 18" fill="none" xmlns="http://www.w3.org/2000/svg">
<path fill-rule="evenodd" clip-rule="evenodd" d="M3.77975 2.09905C3.77975 1.30997 4.41943 0.670288 5.20851 0.670288H9.99679C10.7859 0.670288 11.4256 1.30997 11.4256 2.09905C11.4256 2.40077 11.332 2.68065 11.1724 2.91127H11.6088C13.2656 2.91127 14.6088 4.25441 14.6088 5.91127V14.5434C14.6088 16.2003 13.2656 17.5434 11.6088 17.5434H3.84082C2.18396 17.5434 0.84082 16.2003 0.84082 14.5434V5.91127C0.84082 4.25442 2.18397 2.91127 3.84082 2.91127H4.03291C3.87327 2.68065 3.77975 2.40077 3.77975 2.09905ZM9.09552 2.91127H6.10981C5.62453 2.90669 5.23255 2.51187 5.23255 2.02551C5.23255 1.53629 5.62914 1.1397 6.11835 1.1397H9.08698C9.57619 1.1397 9.97278 1.53629 9.97278 2.02551C9.97278 2.51187 9.5808 2.90669 9.09552 2.91127ZM13.8255 6.71829C13.8255 5.06144 12.4824 3.71829 10.8255 3.71829H4.62413C2.96728 3.71829 1.62413 5.06143 1.62413 6.71829V13.4589C1.62413 14.2174 1.90558 14.9101 2.36974 15.4383H5.34955V16.2077H3.42052C3.78895 16.3693 4.19607 16.4589 4.62413 16.4589H10.8255C11.2536 16.4589 11.6607 16.3693 12.0291 16.2077H10.0903V15.4383H13.0799C13.5441 14.9101 13.8255 14.2174 13.8255 13.4589V6.71829ZM2.27192 8.12896H5.34955V14.6689H2.27192V8.12896ZM2.34198 6.57553C2.34198 5.03672 3.88273 4.24696 3.88273 4.24696C5.57926 5.29097 5.34955 6.57553 5.34955 6.57553V7.34494H2.34198V6.57553ZM9.25843 16.2077H6.1808V15.4383H9.25843V16.2077ZM9.25843 8.12896H6.1808V14.6689H9.25843V8.12896ZM7.79161 4.24696C7.79161 4.24696 6.25086 5.03672 6.25086 6.57553V7.34494H9.25843V6.57553C9.25843 6.57553 9.48814 5.29097 7.79161 4.24696ZM13.168 8.12896H10.0903V14.6689H13.168V8.12896ZM11.7011 4.24696C11.7011 4.24696 10.1604 5.03672 10.1604 6.57553V7.34494H13.168V6.57553C13.168 6.57553 13.3977 5.29097 11.7011 4.24696Z" fill="url(#paint0_linear_123_531)"/>
<defs>
<linearGradient id="paint0_linear_123_531" x1="7.72482" y1="-2.09488" x2="7.72482" y2="21.5275" gradientUnits="userSpaceOnUse">
<stop stop-color="#FF3AC8"/>
<stop offset="1" stop-color="#F81212"/>
</linearGradient>
</defs>
</svg>
