<svg width="51" height="43" viewBox="0 0 51 43" fill="none" xmlns="http://www.w3.org/2000/svg">
<path d="M39.9543 42.983C37.9357 42.983 35.9624 42.3844 34.284 41.2629C32.6056 40.1414 31.2975 38.5474 30.525 36.6824C29.7525 34.8175 29.5504 32.7653 29.9442 30.7855C30.338 28.8057 31.31 26.9871 32.7374 25.5597C34.1648 24.1324 35.9834 23.1603 37.9632 22.7665C39.943 22.3727 41.9952 22.5748 43.8601 23.3473C45.7251 24.1198 47.3191 25.4279 48.4406 27.1064C49.562 28.7848 50.1606 30.7581 50.1606 32.7767C50.1577 35.4826 49.0814 38.0769 47.168 39.9904C45.2546 41.9038 42.6603 42.98 39.9543 42.983ZM39.9543 26.1204C38.6379 26.1204 37.3509 26.5108 36.2563 27.2422C35.1617 27.9736 34.3085 29.0131 33.8047 30.2294C33.3009 31.4457 33.1691 32.7841 33.426 34.0752C33.6828 35.3664 34.3167 36.5525 35.2476 37.4834C36.1785 38.4143 37.3646 39.0482 38.6558 39.305C39.947 39.5619 41.2853 39.4301 42.5016 38.9263C43.7179 38.4225 44.7574 37.5693 45.4888 36.4747C46.2202 35.3801 46.6106 34.0932 46.6106 32.7767C46.6086 31.0119 45.9066 29.3201 44.6588 28.0722C43.4109 26.8244 41.7191 26.1224 39.9543 26.1204ZM10.6667 42.983C8.64813 42.983 6.67485 42.3844 4.99643 41.2629C3.31802 40.1414 2.00985 38.5474 1.23736 36.6824C0.464871 34.8175 0.262753 32.7653 0.656565 30.7855C1.05038 28.8057 2.02243 26.9871 3.44981 25.5597C4.87718 24.1324 6.69577 23.1603 8.67559 22.7665C10.6554 22.3727 12.7076 22.5748 14.5725 23.3473C16.4375 24.1198 18.0315 25.4279 19.153 27.1064C20.2744 28.7848 20.873 30.7581 20.873 32.7767C20.8701 35.4826 19.7938 38.0769 17.8804 39.9904C15.967 41.9038 13.3727 42.98 10.6667 42.983ZM10.6667 26.1204C9.35025 26.1204 8.06333 26.5108 6.96871 27.2422C5.87409 27.9736 5.02094 29.0131 4.51715 30.2294C4.01335 31.4457 3.88153 32.7841 4.13837 34.0752C4.3952 35.3664 5.02915 36.5525 5.96004 37.4834C6.89094 38.4143 8.07697 39.0482 9.36817 39.305C10.6594 39.5619 11.9977 39.4301 13.214 38.9263C14.4303 38.4225 15.4698 37.5693 16.2012 36.4747C16.9326 35.3801 17.323 34.0932 17.323 32.7767C17.321 31.0119 16.619 29.3201 15.3712 28.0722C14.1233 26.8244 12.4315 26.1224 10.6667 26.1204ZM32.4106 7.48283C32.8782 7.48445 33.3414 7.39337 33.7736 7.21484C34.2057 7.03632 34.5982 6.77389 34.9284 6.44274C35.2585 6.11159 35.5197 5.71829 35.6968 5.28557C35.874 4.85285 35.9637 4.3893 35.9606 3.92172C35.9658 3.45648 35.8781 2.99488 35.7028 2.56391C35.5275 2.13293 35.268 1.74124 34.9395 1.41173C34.611 1.08222 34.2202 0.821509 33.7897 0.644839C33.3593 0.468169 32.898 0.379087 32.4328 0.382802C31.9666 0.381345 31.5046 0.471726 31.0734 0.648785C30.6421 0.825844 30.2499 1.08611 29.9193 1.41473C29.5886 1.74335 29.3259 2.13388 29.1461 2.56403C28.9664 2.99418 28.8731 3.45553 28.8716 3.92172C28.8702 4.38792 28.9606 4.84983 29.1376 5.2811C29.3147 5.71236 29.575 6.10453 29.9036 6.43521C30.2322 6.76589 30.6227 7.0286 31.0529 7.20835C31.483 7.3881 31.9444 7.48137 32.4106 7.48283Z" fill="url(#paint0_linear_13_47)"/>
<path d="M37.6857 14.5828H32.831C32.7514 14.5828 32.6732 14.5614 32.6047 14.5208C32.5362 14.4802 32.4799 14.4219 32.4416 14.352L28.9205 7.89878C28.6724 7.41921 28.3148 7.00479 27.8768 6.68908C27.4388 6.37336 26.9326 6.16522 26.3992 6.08151C25.8658 5.99779 25.3201 6.04085 24.8064 6.20719C24.2927 6.37354 23.8255 6.6585 23.4424 7.03901L15.6922 14.849C15.0411 15.5136 14.6716 16.4038 14.6605 17.3341C14.6605 19.2644 16.0583 19.9522 16.7129 20.3405C19.8746 22.1621 22.1011 23.4944 23.3226 24.2344C23.3875 24.2739 23.4412 24.3295 23.4785 24.3957C23.5158 24.462 23.5354 24.5367 23.5356 24.6127V32.2807C23.5356 33.2359 24.27 34.0557 25.2251 34.1034C25.4649 34.115 25.7046 34.0778 25.9296 33.994C26.1546 33.9103 26.3603 33.7818 26.5342 33.6163C26.7082 33.4507 26.8467 33.2517 26.9415 33.0311C27.0362 32.8105 27.0852 32.5729 27.0856 32.3329V22.7922C27.0857 22.5104 27.0188 22.2326 26.8903 21.9819C26.7618 21.7311 26.5755 21.5145 26.3467 21.35L22.242 18.3979C22.1905 18.3611 22.1475 18.3136 22.1158 18.2587C22.0842 18.2038 22.0646 18.1428 22.0585 18.0798C22.0525 18.0167 22.0599 17.9531 22.0805 17.8931C22.101 17.8332 22.1342 17.7784 22.1777 17.7323L26.8371 12.7634C26.8848 12.7123 26.944 12.6732 27.0098 12.6493C27.0756 12.6254 27.146 12.6174 27.2155 12.626C27.2849 12.6345 27.3514 12.6594 27.4094 12.6985C27.4674 12.7376 27.5153 12.7899 27.5493 12.851L29.97 17.2198C30.1238 17.4967 30.349 17.7274 30.6221 17.888C30.8952 18.0485 31.2063 18.1331 31.5231 18.1328H37.7356C37.9761 18.1331 38.2141 18.0845 38.4352 17.99C38.6563 17.8955 38.8559 17.7571 39.0219 17.5831C39.1879 17.4091 39.3168 17.2032 39.4008 16.9779C39.4848 16.7526 39.5222 16.5126 39.5106 16.2724C39.464 15.3172 38.6409 14.5828 37.6857 14.5828Z" fill="url(#paint1_linear_13_47)"/>
<defs>
<linearGradient id="paint0_linear_13_47" x1="25.3105" y1="-6.59865" x2="25.3105" y2="53.0418" gradientUnits="userSpaceOnUse">
<stop stop-color="#FF3AC8"/>
<stop offset="1" stop-color="#F81212"/>
</linearGradient>
<linearGradient id="paint1_linear_13_47" x1="27.0866" y1="1.44052" x2="27.0866" y2="40.7324" gradientUnits="userSpaceOnUse">
<stop stop-color="#FF3AC8"/>
<stop offset="1" stop-color="#F81212"/>
</linearGradient>
</defs>
</svg>
