<svg width="33" height="23" viewBox="0 0 33 23" fill="none" xmlns="http://www.w3.org/2000/svg">
<g clip-path="url(#clip0_123_541)">
<path d="M27.9497 13.0994C28.3278 10.8873 28.7054 8.67506 29.0825 6.46251C26.013 3.16664 21.5837 7.83557 18.5138 4.53942L17.8894 4.42631L15.6843 17.3495L16.2701 17.6877L17.381 11.1763L17.3809 11.1769C20.4515 14.4725 24.8803 9.80386 27.9497 13.0994Z" fill="url(#paint0_linear_123_541)"/>
</g>
<g clip-path="url(#clip1_123_541)">
<path d="M5.73726 13.8303C5.19052 11.6538 4.64423 9.47705 4.09839 7.29997C6.90582 3.77823 11.6804 8.09341 14.4883 4.57136L15.1022 4.41066L18.2926 17.1264L17.7346 17.5086L16.1272 11.1017L16.1273 11.1023C13.3187 14.6238 8.54461 10.3089 5.73726 13.8303Z" fill="url(#paint1_linear_123_541)"/>
</g>
<defs>
<linearGradient id="paint0_linear_123_541" x1="26.8849" y1="1.89468" x2="15.4669" y2="21.6712" gradientUnits="userSpaceOnUse">
<stop stop-color="#FFC83A"/>
<stop offset="1" stop-color="#F812E1"/>
</linearGradient>
<linearGradient id="paint1_linear_123_541" x1="5.9389" y1="2.57694" x2="18.8412" y2="21.4188" gradientUnits="userSpaceOnUse">
<stop stop-color="#FFC83A"/>
<stop offset="1" stop-color="#F812E1"/>
</linearGradient>
<clipPath id="clip0_123_541">
<rect width="17.3986" height="17.3986" fill="white" transform="translate(15.3193 0.618347) rotate(15)"/>
</clipPath>
<clipPath id="clip1_123_541">
<rect width="17.3986" height="17.3986" fill="white" transform="matrix(-0.943211 0.332195 0.332195 0.943211 17.3726 0.416626)"/>
</clipPath>
</defs>
</svg>
