<svg width="18" height="17" viewBox="0 0 18 17" fill="none" xmlns="http://www.w3.org/2000/svg">
<rect x="0.637695" y="12.063" width="2.42637" height="5.75022" transform="rotate(-34.1966 0.637695 12.063)" fill="url(#paint0_linear_123_501)"/>
<rect width="2.42637" height="5.75022" transform="matrix(-0.827114 -0.562034 -0.562034 0.827114 17.7065 12.063)" fill="url(#paint1_linear_123_501)"/>
<rect x="3.37256" y="11.5629" width="1.11665" height="2.88818" transform="rotate(-34.1966 3.37256 11.5629)" fill="url(#paint2_linear_123_501)"/>
<rect width="1.11665" height="2.88818" transform="matrix(-0.827114 -0.562034 -0.562034 0.827114 14.9722 11.5629)" fill="url(#paint3_linear_123_501)"/>
<path fill-rule="evenodd" clip-rule="evenodd" d="M11.9943 13.3168C11.9943 14.8773 10.7292 16.1423 9.16877 16.1423C7.60828 16.1423 6.34326 14.8773 6.34326 13.3168C6.34326 11.7563 7.60828 10.4913 9.16877 10.4913C10.7292 10.4913 11.9943 11.7563 11.9943 13.3168ZM6.59497 13.3168C6.59497 14.7382 7.7473 15.8906 9.16877 15.8906C10.5902 15.8906 11.7426 14.7382 11.7426 13.3168C11.7426 11.8953 10.5902 10.743 9.16877 10.743C7.7473 10.743 6.59497 11.8953 6.59497 13.3168Z" fill="url(#paint4_linear_123_501)"/>
<path fill-rule="evenodd" clip-rule="evenodd" d="M6.56601 5.29858C6.43 5.26469 6.28771 5.2467 6.14122 5.2467C5.17414 5.2467 4.39016 6.03067 4.39016 6.99775C4.39016 7.96483 5.17414 8.7488 6.14122 8.7488C6.28765 8.7488 6.42988 8.73083 6.56583 8.69697C6.30423 8.8316 6.00753 8.90759 5.69307 8.90759C4.63828 8.90759 3.7832 8.05252 3.7832 6.99773C3.7832 5.94294 4.63828 5.08786 5.69307 5.08786C6.0076 5.08786 6.30437 5.16389 6.56601 5.29858Z" fill="url(#paint5_linear_123_501)"/>
<path fill-rule="evenodd" clip-rule="evenodd" d="M12.1163 13.2242C13.3258 11.9174 14.1092 9.82648 14.1092 7.47007C14.1092 3.51055 11.8973 0.30072 9.16883 0.30072C6.62625 0.30072 4.53228 3.0881 4.25878 6.67205C4.41141 5.86061 5.12381 5.2467 5.97959 5.2467C6.94667 5.2467 7.73065 6.03067 7.73065 6.99775C7.73065 7.96483 6.94667 8.7488 5.97959 8.7488C5.05862 8.7488 4.30372 8.03781 4.23382 7.13476C4.2303 7.24589 4.22852 7.35768 4.22852 7.47007C4.22852 9.8309 5.01483 11.9252 6.22814 13.2315C6.22802 13.2204 6.22795 13.2092 6.22795 13.1981C6.22795 11.572 7.54614 10.2538 9.17221 10.2538C10.7983 10.2538 12.1165 11.572 12.1165 13.1981C12.1165 13.2068 12.1164 13.2155 12.1163 13.2242ZM10.8272 14.2255C10.8172 14.2122 10.8062 14.1994 10.7941 14.1873L10.3055 13.6987C10.1662 13.5595 9.94048 13.5595 9.80124 13.6987C9.662 13.8379 9.662 14.0637 9.80124 14.2029L10.1083 14.51C10.3549 14.4411 10.5951 14.3455 10.8272 14.2255ZM8.22902 14.5099L8.53594 14.2029C8.67518 14.0637 8.67518 13.8379 8.53593 13.6987C8.39669 13.5595 8.17094 13.5595 8.0317 13.6987L7.54308 14.1873C7.53103 14.1994 7.52003 14.2121 7.51006 14.2253C7.7422 14.3454 7.98234 14.4409 8.22902 14.5099ZM13.6988 7.04312C13.6988 8.0102 12.9149 8.79417 11.9478 8.79417C10.9807 8.79417 10.1967 8.0102 10.1967 7.04312C10.1967 6.07604 10.9807 5.29206 11.9478 5.29206C12.9149 5.29206 13.6988 6.07604 13.6988 7.04312ZM7.4624 11.84C7.32316 11.9793 7.32315 12.205 7.4624 12.3443L7.95102 12.8329C8.09026 12.9721 8.31602 12.9721 8.45526 12.8329C8.5945 12.6937 8.5945 12.4679 8.45526 12.3287L7.96663 11.84C7.82739 11.7008 7.60164 11.7008 7.4624 11.84ZM10.7132 11.84C10.8524 11.9793 10.8524 12.205 10.7132 12.3443L10.2245 12.8329C10.0853 12.9721 9.85954 12.9721 9.7203 12.8329C9.58106 12.6937 9.58106 12.4679 9.7203 12.3287L10.2089 11.84C10.3482 11.7008 10.5739 11.7008 10.7132 11.84Z" fill="url(#paint6_linear_123_501)"/>
<path fill-rule="evenodd" clip-rule="evenodd" d="M12.7263 8.79422C13.7811 8.79422 14.6362 7.93914 14.6362 6.88435C14.6362 5.82956 13.7811 4.97449 12.7263 4.97449C12.3179 4.97449 11.9394 5.10269 11.6289 5.32104C11.7323 5.30202 11.8389 5.29208 11.9478 5.29208C12.9148 5.29208 13.6988 6.07605 13.6988 7.04313C13.6988 7.8795 13.1124 8.57892 12.3284 8.75271C12.4567 8.77991 12.5898 8.79422 12.7263 8.79422Z" fill="url(#paint7_linear_123_501)"/>
<defs>
<linearGradient id="paint0_linear_123_501" x1="1.85088" y1="11.1206" x2="1.85088" y2="19.1709" gradientUnits="userSpaceOnUse">
<stop stop-color="#FF3AC8"/>
<stop offset="1" stop-color="#F81212"/>
</linearGradient>
<linearGradient id="paint1_linear_123_501" x1="1.21319" y1="-0.942348" x2="1.21319" y2="7.10798" gradientUnits="userSpaceOnUse">
<stop stop-color="#FF3AC8"/>
<stop offset="1" stop-color="#F81212"/>
</linearGradient>
<linearGradient id="paint2_linear_123_501" x1="3.93089" y1="11.0896" x2="3.93089" y2="15.1331" gradientUnits="userSpaceOnUse">
<stop stop-color="#FF3AC8"/>
<stop offset="1" stop-color="#F81212"/>
</linearGradient>
<linearGradient id="paint3_linear_123_501" x1="0.558327" y1="-0.473315" x2="0.558327" y2="3.57014" gradientUnits="userSpaceOnUse">
<stop stop-color="#FF3AC8"/>
<stop offset="1" stop-color="#F81212"/>
</linearGradient>
<linearGradient id="paint4_linear_123_501" x1="9.16877" y1="9.56518" x2="9.16877" y2="17.4766" gradientUnits="userSpaceOnUse">
<stop stop-color="#FF3AC8"/>
<stop offset="1" stop-color="#F81212"/>
</linearGradient>
<linearGradient id="paint5_linear_123_501" x1="5.17465" y1="4.46188" x2="5.17465" y2="9.80952" gradientUnits="userSpaceOnUse">
<stop stop-color="#FF3AC8"/>
<stop offset="1" stop-color="#F81212"/>
</linearGradient>
<linearGradient id="paint6_linear_123_501" x1="9.16884" y1="-2.02788" x2="9.16884" y2="17.865" gradientUnits="userSpaceOnUse">
<stop stop-color="#FF3AC8"/>
<stop offset="1" stop-color="#F81212"/>
</linearGradient>
<linearGradient id="paint7_linear_123_501" x1="13.1325" y1="4.34851" x2="13.1325" y2="9.69614" gradientUnits="userSpaceOnUse">
<stop stop-color="#FF3AC8"/>
<stop offset="1" stop-color="#F81212"/>
</linearGradient>
</defs>
</svg>
