<svg width="16" height="18" viewBox="0 0 16 18" fill="none" xmlns="http://www.w3.org/2000/svg">
<path d="M7.84716 0.269165C6.48433 0.269165 5.66858 0.476834 5.15006 0.735771C4.89047 0.865564 4.70616 1.00185 4.58221 1.14137C4.4971 1.24506 4.42858 1.3613 4.37908 1.48598C4.35873 1.5381 4.34521 1.59263 4.33885 1.64822L3.9936 6.08974C3.98906 6.11699 3.99814 6.16112 3.9936 6.19098L3.95336 6.63746C3.94958 6.67783 3.94958 6.71846 3.95336 6.75882C3.95336 8.90041 5.70557 10.6526 7.84716 10.6526C9.98874 10.6526 11.7409 8.90041 11.7409 6.75882V6.65758C11.7411 6.65088 11.7411 6.64417 11.7409 6.63746L11.3555 1.64822C11.3491 1.59263 11.3356 1.5381 11.3152 1.48598C11.3152 1.48598 11.2367 1.2809 11.1121 1.14137C10.9881 1.0012 10.8038 0.864915 10.5443 0.735771C10.0257 0.476185 9.20998 0.269165 7.84716 0.269165ZM7.84716 10.6526C3.56398 10.6526 0.0595703 12.6683 0.0595703 14.4854V17.1423H15.6347V14.4854C15.6347 12.7592 12.4665 10.8577 8.476 10.6727C8.26667 10.6589 8.05694 10.6522 7.84716 10.6526ZM7.84716 1.5671C9.08019 1.5671 9.69606 1.76179 9.95629 1.89158C10.0433 1.93506 10.0536 1.95193 10.0783 1.9727L10.3418 5.29865C9.74473 5.33499 8.93093 5.46089 7.84716 5.46089C6.76338 5.46089 5.95023 5.33499 5.35253 5.29865L5.61601 1.9727C5.64002 1.95193 5.65106 1.93506 5.73802 1.89158C5.99825 1.76179 6.61412 1.5671 7.84716 1.5671ZM7.31955 2.21606V2.98703H6.54922V4.0416H7.3202V4.81192H8.37412V4.04095H9.14509V2.98703H8.37412V2.21606H7.31955ZM5.90026 12.1128L7.56356 15.8443H1.3575V14.4854C1.3575 14.0019 3.01236 12.5859 5.90026 12.1128ZM9.79405 12.1128C12.6819 12.5865 14.3368 14.0019 14.3368 14.4854V15.8443H8.13075L9.79405 12.1128Z" fill="url(#paint0_linear_123_530)"/>
<defs>
<linearGradient id="paint0_linear_123_530" x1="7.84716" y1="-2.496" x2="7.84716" y2="21.1264" gradientUnits="userSpaceOnUse">
<stop stop-color="#FF3AC8"/>
<stop offset="1" stop-color="#F81212"/>
</linearGradient>
</defs>
</svg>
