<svg width="39" height="34" viewBox="0 0 39 34" fill="none" xmlns="http://www.w3.org/2000/svg">
<path d="M37.5633 21.9493C36.718 20.8018 35.1059 20.5537 33.9597 21.4036L26.2473 27.0845H18.4769C17.9133 27.0845 17.504 26.6174 17.504 26.0543C17.504 25.4905 17.9711 25.0234 18.4769 25.0234H23.5187C24.4916 25.0234 25.4999 24.3223 25.6687 23.3082C25.8781 22.0196 24.8878 20.8998 23.6314 20.8998H13.2664C11.5847 20.8998 9.84381 21.4958 8.49076 22.5911L5.49471 25.0227L1.92652 24.9647C1.4208 24.9647 0.953613 25.493 0.953613 26.0535V32.2376C0.953613 32.8059 1.4208 33.2698 1.92652 33.2698H24.2261C25.6455 33.2698 27.0559 32.8067 28.2015 31.9638L36.9061 25.5516C38.1625 24.7069 38.4074 23.0962 37.5633 21.9493ZM11.2626 11.621H15.3862V15.7446C15.3862 16.3116 15.8501 16.7755 16.4171 16.7755H20.5407C21.1076 16.7755 21.5715 16.3116 21.5715 15.7446V11.621H25.6951C26.2644 11.621 26.726 11.1594 26.726 10.5901V6.46651C26.726 5.89707 26.2644 5.43561 25.6951 5.43561H21.5715V1.31202C21.5715 0.742583 21.1076 0.281128 20.5407 0.281128H16.4171C15.8501 0.281128 15.3862 0.742583 15.3862 1.31202V5.43561H11.2626C10.6956 5.43561 10.2317 5.89694 10.2317 6.46651V10.5901C10.2317 11.1571 10.6956 11.621 11.2626 11.621Z" fill="url(#paint0_linear_13_62)"/>
<defs>
<linearGradient id="paint0_linear_13_62" x1="19.5061" y1="-5.12507" x2="19.5061" y2="41.0592" gradientUnits="userSpaceOnUse">
<stop stop-color="#FF3AC8"/>
<stop offset="1" stop-color="#F81212"/>
</linearGradient>
</defs>
</svg>
