<svg width="38" height="36" viewBox="0 0 38 36" fill="none" xmlns="http://www.w3.org/2000/svg">
<path d="M19.0722 11.5967C22.265 11.5967 24.8553 9.00434 24.8553 5.81221C24.8553 5.0528 24.7057 4.30082 24.4151 3.59922C24.1245 2.89761 23.6985 2.26013 23.1614 1.72317C22.6244 1.18622 21.9869 0.7603 21.2852 0.469747C20.5836 0.179193 19.8316 0.0296941 19.0722 0.0297852C18.3128 0.0296941 17.5608 0.179193 16.8591 0.469747C16.1575 0.7603 15.52 1.18622 14.983 1.72317C14.4459 2.26013 14.0199 2.89761 13.7293 3.59922C13.4387 4.30082 13.2891 5.0528 13.2891 5.81221C13.2891 9.00364 15.8794 11.5967 19.0722 11.5967ZM10.0137 35.5238V30.3917L4.86711 31.8241C4.48006 31.9788 4.0671 32.0583 3.6503 32.0585C3.05226 32.058 2.4656 31.8949 1.9531 31.5867C1.4406 31.2785 1.02154 30.8367 0.740784 30.3087C0.460024 29.7806 0.328122 29.1862 0.359191 28.5889C0.39026 27.9917 0.583132 27.4141 0.917168 26.9181L9.17273 15.598C10.0692 14.3708 11.3207 13.0028 13.9602 13.0028H23.9408C26.579 13.0028 27.8318 14.3708 28.7269 15.598L36.9825 26.9181C37.3162 27.4141 37.5089 27.9915 37.5399 28.5885C37.5709 29.1855 37.439 29.7798 37.1585 30.3077C36.8779 30.8356 36.4592 31.2774 35.9471 31.5857C35.4349 31.8941 34.8486 32.0575 34.2507 32.0585C33.8339 32.0585 33.4209 31.9789 33.0339 31.8241L27.8859 30.3917V35.5238H10.0137ZM18.9502 31.9385L25.6194 29.7316L25.4689 29.69C20.8679 28.336 22.6595 22.2568 27.2598 23.6143L27.8887 23.8258V16.9604L18.9502 19.8807L10.0124 16.9604V23.8258L10.6378 23.6143C15.2415 22.2568 17.0331 28.336 12.4293 29.69L12.2817 29.7316L18.9502 31.9385Z" fill="url(#paint0_linear_13_60)"/>
<defs>
<linearGradient id="paint0_linear_13_60" x1="18.9495" y1="-5.78698" x2="18.9495" y2="43.9047" gradientUnits="userSpaceOnUse">
<stop stop-color="#FF3AC8"/>
<stop offset="1" stop-color="#F81212"/>
</linearGradient>
</defs>
</svg>
