<svg width="30" height="40" viewBox="0 0 30 40" fill="none" xmlns="http://www.w3.org/2000/svg">
<path d="M21.4968 9.21273C22.6677 9.21273 23.7907 8.74758 24.6187 7.9196C25.4467 7.09162 25.9118 5.96865 25.9118 4.79771C25.9118 3.62677 25.4467 2.5038 24.6187 1.67582C23.7907 0.847843 22.6677 0.38269 21.4968 0.38269C20.3259 0.38269 19.2029 0.847843 18.3749 1.67582C17.5469 2.5038 17.0818 3.62677 17.0818 4.79771C17.0818 5.96865 17.5469 7.09162 18.3749 7.9196C19.2029 8.74758 20.3259 9.21273 21.4968 9.21273ZM12.6275 13.4139C11.4041 13.718 10.5691 14.1752 9.89511 14.7423C8.88456 15.5939 8.06828 16.8223 6.9655 18.7531C6.70725 19.205 6.28007 19.5357 5.77795 19.6726C5.27582 19.8095 4.73989 19.7413 4.28804 19.483C3.83619 19.2248 3.50543 18.7976 3.36854 18.2955C3.23165 17.7934 3.29983 17.2574 3.55809 16.8056C4.65596 14.8855 5.7656 13.0891 7.36776 11.7411C9.03958 10.3322 11.0862 9.53552 13.8461 9.22843C14.9999 9.10088 16.2694 9.12639 17.4595 9.65718C18.7085 10.2154 19.6209 11.2152 20.2429 12.5515C21.0808 14.3499 21.7038 15.4202 22.2022 16.0403C22.4426 16.3386 22.6104 16.4769 22.7055 16.5387C22.7811 16.5878 22.8135 16.5917 22.8252 16.5937H22.8262C22.9116 16.6035 23.1882 16.5937 24.0006 16.2336C24.3548 16.0766 24.7414 15.8882 25.2143 15.6577L25.3271 15.6027C25.9054 15.3173 26.489 15.0426 27.0774 14.7786C27.5525 14.57 28.0908 14.5581 28.5746 14.7454C29.0584 14.9328 29.4484 15.3041 29.6592 15.7782C29.8699 16.2522 29.8844 16.7905 29.6993 17.2752C29.5143 17.7599 29.1448 18.1516 28.6717 18.3646C28.1264 18.6093 27.5858 18.8641 27.0499 19.1289L26.9214 19.1917C26.4691 19.4124 26.0139 19.6351 25.5871 19.8235C24.7041 20.214 23.5758 20.6378 22.3523 20.4897C21.0612 20.3327 20.0663 19.6037 19.2471 18.6256L16.5657 23.799L20.2743 28.6241C20.4951 28.9125 20.6315 29.2559 20.6697 29.617L21.486 37.462C21.5171 37.7205 21.4965 37.9825 21.4253 38.2329C21.3541 38.4834 21.2338 38.7171 21.0714 38.9206C20.909 39.124 20.7077 39.2931 20.4793 39.418C20.2509 39.5429 19.9999 39.6211 19.7409 39.6481C19.482 39.675 19.2203 39.6502 18.9711 39.575C18.7218 39.4998 18.49 39.3758 18.2892 39.2101C18.0884 39.0444 17.9225 38.8405 17.8013 38.6101C17.6801 38.3797 17.6059 38.1275 17.5831 37.8682L16.8237 30.5755L14.5711 27.644L14.5515 27.6803L14.4691 27.5115L10.3072 22.0958C10.1026 21.8296 9.96972 21.5153 9.92128 21.1831C9.87284 20.8509 9.91045 20.5118 10.0305 20.1983L12.6275 13.4139Z" fill="url(#paint0_linear_10_5)"/>
<path d="M9.65676 24.9175L8.21256 28.8027L2.52209 28.3514C2.26337 28.3274 2.00246 28.355 1.75449 28.4326C1.50652 28.5102 1.27644 28.6363 1.07759 28.8035C0.878744 28.9708 0.715094 29.1759 0.596138 29.4069C0.477182 29.6379 0.405288 29.8902 0.38463 30.1492C0.363972 30.4082 0.394959 30.6687 0.475795 30.9157C0.556632 31.1626 0.685705 31.391 0.855528 31.5877C1.02535 31.7843 1.23254 31.9453 1.46507 32.0613C1.6976 32.1772 1.95084 32.2458 2.21009 32.2631L9.38009 32.8321C9.80561 32.866 10.2306 32.7602 10.5905 32.5307C10.9505 32.3012 11.2258 31.9607 11.3747 31.5606L12.4784 28.5898L9.65676 24.9175Z" fill="url(#paint1_linear_10_5)"/>
<defs>
<linearGradient id="paint0_linear_10_5" x1="16.5639" y1="-6.05386" x2="16.5639" y2="48.9325" gradientUnits="userSpaceOnUse">
<stop stop-color="#FF3AC8"/>
<stop offset="1" stop-color="#F81212"/>
</linearGradient>
<linearGradient id="paint1_linear_10_5" x1="6.42843" y1="23.6194" x2="6.42843" y2="34.7086" gradientUnits="userSpaceOnUse">
<stop stop-color="#FF3AC8"/>
<stop offset="1" stop-color="#F81212"/>
</linearGradient>
</defs>
</svg>
