<svg width="38" height="36" viewBox="0 0 38 36" fill="none" xmlns="http://www.w3.org/2000/svg">
<path d="M18.0637 13.6894C19.824 13.6894 21.5151 14.1814 22.9705 15.0686V35.8672H9.66382V23.7872L5.95181 30.0663C5.1735 31.39 3.47344 31.8267 2.15524 31.0435C0.837049 30.2673 0.39973 28.5693 1.17873 27.2525L6.45496 18.319C8.15295 15.4497 11.2371 13.6894 14.5707 13.6894H18.0637ZM21.8616 5.92714C21.8616 8.99045 19.3805 11.4716 16.3172 11.4716C13.2538 11.4716 10.7727 8.99045 10.7727 5.92714C10.7727 2.86522 13.2538 0.38269 16.3172 0.38269C19.3805 0.38269 21.8616 2.86522 21.8616 5.92714ZM31.8416 1.49158V9.55183C32.507 9.93301 32.9505 10.6538 32.9505 11.4716V19.0467L34.0594 18.6794V14.7983C34.0594 14.1884 34.5584 13.6894 35.1683 13.6894H36.2772C36.8871 13.6894 37.3861 14.1884 37.3861 14.7983V20.6546C37.3861 21.1328 37.0811 21.5556 36.6306 21.7011L32.9505 22.9278V24.7783H36.2772C36.8871 24.7783 37.3861 25.2773 37.3861 25.8872V26.9961C37.3861 27.6059 36.8871 28.1049 36.2772 28.1049H33.2277L34.8218 34.488C35.002 35.188 34.4683 35.8672 33.7475 35.8672H29.6238C29.014 35.8672 28.515 35.3682 28.515 34.7583V28.1049H27.4061C26.1794 28.1049 25.1883 27.1139 25.1883 25.8872V15.9072C25.1883 14.6804 26.1794 13.6894 27.4061 13.6894V11.4716C27.4061 10.6538 27.8496 9.93301 28.515 9.55183V2.60047C27.9051 2.60047 27.4061 2.10424 27.4061 1.49158C27.4061 0.879196 27.9051 0.38269 28.515 0.38269H30.7327C31.3426 0.38269 31.8416 0.879196 31.8416 1.49158Z" fill="url(#paint0_linear_13_57)"/>
<defs>
<linearGradient id="paint0_linear_13_57" x1="19.0894" y1="-5.43252" x2="19.0894" y2="44.2458" gradientUnits="userSpaceOnUse">
<stop stop-color="#FF3AC8"/>
<stop offset="1" stop-color="#F81212"/>
</linearGradient>
</defs>
</svg>
