<svg width="38" height="36" viewBox="0 0 38 36" fill="none" xmlns="http://www.w3.org/2000/svg">
<path d="M37.4047 5.01404L29.1415 11.6433C29.2979 12.6389 28.9238 13.6865 28.0854 14.3591L20.3195 20.5894L21.6081 21.4241L25.587 18.232C26.2122 17.7304 27.1342 17.8315 27.6358 18.4568L28.5478 19.5936C29.0494 20.2188 28.9483 21.1408 28.323 21.6424L22.3192 26.4591C21.829 26.8524 21.1448 26.8875 20.6251 26.5453L16.3407 23.7815L14.4436 25.3034L17.1797 28.7139C17.6813 29.3391 17.5801 30.2611 16.9549 30.7627L15.8181 31.6747C15.1928 32.1763 14.2709 32.0752 13.7692 31.4499L11.2612 28.3237L6.02841 35.2077C5.459 35.9682 4.32379 35.9797 3.73098 35.2408L0.33938 31.0132C-0.162234 30.388 -0.0610797 29.466 0.564169 28.9644L7.38505 23.4922L6.47303 22.3554C5.4641 21.0978 5.665 19.2667 6.92261 18.2577L17.1539 10.0495C18.4115 9.04057 20.2427 9.24147 21.2516 10.4991L23.5252 8.67502C24.3636 8.0024 25.4674 7.86431 26.4054 8.23289L33.5318 2.51562C33.0302 1.89038 33.1285 0.970678 33.7566 0.466783C34.3844 -0.0368831 35.3038 0.0663239 35.8054 0.691572L37.6295 2.9652C38.1311 3.59045 38.0325 4.51038 37.4047 5.01404Z" fill="url(#paint0_linear_13_58)"/>
<defs>
<linearGradient id="paint0_linear_13_58" x1="44.0471" y1="-1.24921" x2="-6.88223" y2="39.6096" gradientUnits="userSpaceOnUse">
<stop stop-color="#FF3AC8"/>
<stop offset="1" stop-color="#F81212"/>
</linearGradient>
</defs>
</svg>
