<svg width="65" height="65" viewBox="0 0 65 65" fill="none" xmlns="http://www.w3.org/2000/svg">
<g filter="url(#filter0_i_181_1299)">
<path d="M32.4189 64.0708C23.9838 64.0708 15.8943 60.7199 9.92978 54.7555C3.96531 48.791 0.614501 40.7014 0.614502 32.2664C0.614502 23.8314 3.96531 15.7418 9.92978 9.77732C15.8943 3.81284 23.9838 0.462036 32.4189 0.462037C40.8539 0.462037 48.9435 3.81284 54.9079 9.77732C60.8724 15.7418 64.2232 23.8314 64.2232 32.2664C64.2232 40.7014 60.8724 48.791 54.9079 54.7555C48.9435 60.7199 40.8539 64.0708 32.4189 64.0708ZM46.3333 34.2542C46.8604 34.2542 47.366 34.0447 47.7388 33.672C48.1116 33.2992 48.321 32.7936 48.321 32.2664C48.321 31.7392 48.1116 31.2336 47.7388 30.8608C47.366 30.488 46.8604 30.2786 46.3333 30.2786L23.3029 30.2786L31.8384 21.7471C32.2117 21.3739 32.4214 20.8676 32.4214 20.3398C32.4214 19.8119 32.2117 19.3057 31.8384 18.9324C31.4652 18.5592 30.9589 18.3495 30.4311 18.3495C29.9032 18.3495 29.397 18.5592 29.0237 18.9324L17.0971 30.8591C16.912 31.0437 16.7651 31.2631 16.6649 31.5045C16.5647 31.746 16.5131 32.0049 16.5131 32.2664C16.5131 32.5279 16.5647 32.7867 16.6649 33.0282C16.7651 33.2697 16.912 33.4891 17.0971 33.6737L29.0237 45.6004C29.397 45.9736 29.9032 46.1833 30.4311 46.1833C30.9589 46.1833 31.4652 45.9736 31.8384 45.6004C32.2117 45.2271 32.4214 44.7209 32.4214 44.193C32.4214 43.6652 32.2117 43.1589 31.8384 42.7857L23.3029 34.2542L46.3333 34.2542Z" fill="#9C9C9C"/>
</g>
<defs>
<filter id="filter0_i_181_1299" x="0.614502" y="0.462036" width="63.6087" height="67.6088" filterUnits="userSpaceOnUse" color-interpolation-filters="sRGB">
<feFlood flood-opacity="0" result="BackgroundImageFix"/>
<feBlend mode="normal" in="SourceGraphic" in2="BackgroundImageFix" result="shape"/>
<feColorMatrix in="SourceAlpha" type="matrix" values="0 0 0 0 0 0 0 0 0 0 0 0 0 0 0 0 0 0 127 0" result="hardAlpha"/>
<feOffset dy="4"/>
<feGaussianBlur stdDeviation="2"/>
<feComposite in2="hardAlpha" operator="arithmetic" k2="-1" k3="1"/>
<feColorMatrix type="matrix" values="0 0 0 0 0 0 0 0 0 0 0 0 0 0 0 0 0 0 0.25 0"/>
<feBlend mode="normal" in2="shape" result="effect1_innerShadow_181_1299"/>
</filter>
</defs>
</svg>
