<svg width="65" height="65" viewBox="0 0 65 65" fill="none" xmlns="http://www.w3.org/2000/svg">
<g filter="url(#filter0_i_181_837)">
<path d="M32.7877 64.0708C41.2227 64.0708 49.3123 60.7199 55.2768 54.7555C61.2412 48.791 64.592 40.7014 64.592 32.2664C64.592 23.8314 61.2412 15.7418 55.2768 9.77732C49.3123 3.81284 41.2227 0.462036 32.7877 0.462037C24.3527 0.462037 16.2631 3.81284 10.2986 9.77732C4.33414 15.7418 0.983341 23.8314 0.983342 32.2664C0.983342 40.7014 4.33415 48.791 10.2986 54.7555C16.2631 60.7199 24.3527 64.0708 32.7877 64.0708ZM18.8733 34.2542C18.3461 34.2542 17.8405 34.0447 17.4677 33.672C17.0949 33.2992 16.8855 32.7936 16.8855 32.2664C16.8855 31.7392 17.0949 31.2336 17.4677 30.8608C17.8405 30.488 18.3461 30.2786 18.8733 30.2786L41.9036 30.2786L33.3681 21.7471C32.9949 21.3739 32.7852 20.8676 32.7852 20.3398C32.7852 19.8119 32.9949 19.3057 33.3681 18.9324C33.7414 18.5592 34.2476 18.3495 34.7755 18.3495C35.3033 18.3495 35.8096 18.5592 36.1828 18.9324L48.1094 30.8591C48.2946 31.0437 48.4414 31.2631 48.5416 31.5045C48.6418 31.746 48.6934 32.0049 48.6934 32.2664C48.6934 32.5279 48.6418 32.7867 48.5416 33.0282C48.4414 33.2697 48.2946 33.4891 48.1094 33.6737L36.1828 45.6004C35.8096 45.9736 35.3033 46.1833 34.7755 46.1833C34.2476 46.1833 33.7414 45.9736 33.3681 45.6004C32.9949 45.2271 32.7852 44.7209 32.7852 44.193C32.7852 43.6652 32.9949 43.1589 33.3681 42.7857L41.9036 34.2542L18.8733 34.2542Z" fill="#007AFF"/>
</g>
<defs>
<filter id="filter0_i_181_837" x="0.983337" y="0.462036" width="63.6087" height="67.6088" filterUnits="userSpaceOnUse" color-interpolation-filters="sRGB">
<feFlood flood-opacity="0" result="BackgroundImageFix"/>
<feBlend mode="normal" in="SourceGraphic" in2="BackgroundImageFix" result="shape"/>
<feColorMatrix in="SourceAlpha" type="matrix" values="0 0 0 0 0 0 0 0 0 0 0 0 0 0 0 0 0 0 127 0" result="hardAlpha"/>
<feOffset dy="4"/>
<feGaussianBlur stdDeviation="2"/>
<feComposite in2="hardAlpha" operator="arithmetic" k2="-1" k3="1"/>
<feColorMatrix type="matrix" values="0 0 0 0 0 0 0 0 0 0 0 0 0 0 0 0 0 0 0.25 0"/>
<feBlend mode="normal" in2="shape" result="effect1_innerShadow_181_837"/>
</filter>
</defs>
</svg>
