<svg width="25" height="25" viewBox="0 0 25 25" fill="none" xmlns="http://www.w3.org/2000/svg">
<path d="M12.6968 0.18689C10.2751 0.18689 7.90786 0.904992 5.89433 2.25039C3.88081 3.59578 2.31145 5.50805 1.38473 7.74536C0.458003 9.98267 0.215529 12.4445 0.68797 14.8197C1.16041 17.1948 2.32654 19.3765 4.03891 21.0888C5.75127 22.8012 7.93296 23.9673 10.3081 24.4398C12.6832 24.9122 15.1451 24.6697 17.3824 23.743C19.6197 22.8163 21.532 21.2469 22.8773 19.2334C24.2227 17.2199 24.9408 14.8526 24.9408 12.431C24.9408 10.823 24.6241 9.23088 24.0088 7.74536C23.3935 6.25984 22.4916 4.91006 21.3546 3.7731C20.2177 2.63613 18.8679 1.73424 17.3824 1.11891C15.8969 0.503592 14.3047 0.18689 12.6968 0.18689ZM16.0149 14.0104C16.1297 14.1243 16.2208 14.2597 16.2829 14.4089C16.3451 14.5581 16.3771 14.7181 16.3771 14.8798C16.3771 15.0414 16.3451 15.2015 16.2829 15.3507C16.2208 15.4999 16.1297 15.6353 16.0149 15.7491C15.9011 15.8639 15.7657 15.955 15.6165 16.0171C15.4673 16.0793 15.3072 16.1113 15.1456 16.1113C14.984 16.1113 14.8239 16.0793 14.6747 16.0171C14.5255 15.955 14.3901 15.8639 14.2763 15.7491L12.6968 14.1574L11.1173 15.7491C11.0035 15.8639 10.868 15.955 10.7188 16.0171C10.5696 16.0793 10.4096 16.1113 10.248 16.1113C10.0863 16.1113 9.92629 16.0793 9.77708 16.0171C9.62788 15.955 9.49246 15.8639 9.37863 15.7491C9.26387 15.6353 9.17278 15.4999 9.11062 15.3507C9.04846 15.2015 9.01645 15.0414 9.01645 14.8798C9.01645 14.7181 9.04846 14.5581 9.11062 14.4089C9.17278 14.2597 9.26387 14.1243 9.37863 14.0104L10.9704 12.431L9.37863 10.8515C9.14807 10.6209 9.01855 10.3082 9.01855 9.98215C9.01855 9.65609 9.14807 9.34338 9.37863 9.11282C9.60919 8.88226 9.9219 8.75273 10.248 8.75273C10.574 8.75273 10.8867 8.88226 11.1173 9.11282L12.6968 10.7045L14.2763 9.11282C14.5068 8.88226 14.8195 8.75273 15.1456 8.75273C15.4717 8.75273 15.7844 8.88226 16.0149 9.11282C16.2455 9.34338 16.375 9.65609 16.375 9.98215C16.375 10.3082 16.2455 10.6209 16.0149 10.8515L14.4232 12.431L16.0149 14.0104Z" fill="#E54545"/>
</svg>
