<svg width="21" height="21" viewBox="0 0 21 21" fill="none" xmlns="http://www.w3.org/2000/svg">
<path fill-rule="evenodd" clip-rule="evenodd" d="M8.35821 0.177351C8.80613 0.0429844 9.27925 0.0151886 9.73981 0.0961819C10.2004 0.177175 10.6356 0.364715 11.0108 0.64383C11.386 0.922946 11.6908 1.28591 11.9008 1.70374C12.1107 2.12158 12.2201 2.58272 12.2202 3.05035V17.6744C12.2201 18.142 12.1107 18.6031 11.9008 19.021C11.6908 19.4388 11.386 19.8018 11.0108 20.0809C10.6356 20.36 10.2004 20.5475 9.73981 20.6285C9.27925 20.7095 8.80613 20.6817 8.35821 20.5473L2.35821 18.7474C1.74032 18.562 1.19862 18.1824 0.813497 17.6649C0.428369 17.1473 0.220321 16.5195 0.220215 15.8743V4.85035C0.220321 4.20525 0.428369 3.57736 0.813497 3.05984C1.19862 2.54231 1.74032 2.16271 2.35821 1.97735L8.35821 0.177351ZM13.2202 2.36235C13.2202 2.09713 13.3256 1.84278 13.5131 1.65524C13.7006 1.46771 13.955 1.36235 14.2202 1.36235H17.2202C18.0159 1.36235 18.7789 1.67842 19.3415 2.24103C19.9041 2.80364 20.2202 3.5667 20.2202 4.36235V5.36235C20.2202 5.62757 20.1149 5.88192 19.9273 6.06946C19.7398 6.25699 19.4854 6.36235 19.2202 6.36235C18.955 6.36235 18.7006 6.25699 18.5131 6.06946C18.3256 5.88192 18.2202 5.62757 18.2202 5.36235V4.36235C18.2202 4.09713 18.1149 3.84278 17.9273 3.65524C17.7398 3.46771 17.4854 3.36235 17.2202 3.36235H14.2202C13.955 3.36235 13.7006 3.25699 13.5131 3.06946C13.3256 2.88192 13.2202 2.62757 13.2202 2.36235ZM19.2202 14.3624C19.4854 14.3624 19.7398 14.4677 19.9273 14.6552C20.1149 14.8428 20.2202 15.0971 20.2202 15.3624V16.3624C20.2202 17.158 19.9041 17.9211 19.3415 18.4837C18.7789 19.0463 18.0159 19.3624 17.2202 19.3624H14.2202C13.955 19.3624 13.7006 19.257 13.5131 19.0695C13.3256 18.8819 13.2202 18.6276 13.2202 18.3624C13.2202 18.0971 13.3256 17.8428 13.5131 17.6552C13.7006 17.4677 13.955 17.3624 14.2202 17.3624H17.2202C17.4854 17.3624 17.7398 17.257 17.9273 17.0695C18.1149 16.8819 18.2202 16.6276 18.2202 16.3624V15.3624C18.2202 15.0971 18.3256 14.8428 18.5131 14.6552C18.7006 14.4677 18.955 14.3624 19.2202 14.3624ZM7.22021 9.36235C6.955 9.36235 6.70064 9.46771 6.51311 9.65524C6.32557 9.84278 6.22021 10.0971 6.22021 10.3624C6.22021 10.6276 6.32557 10.8819 6.51311 11.0695C6.70064 11.257 6.955 11.3624 7.22021 11.3624H7.22122C7.48643 11.3624 7.74079 11.257 7.92832 11.0695C8.11586 10.8819 8.22122 10.6276 8.22122 10.3624C8.22122 10.0971 8.11586 9.84278 7.92832 9.65524C7.74079 9.46771 7.48643 9.36235 7.22122 9.36235H7.22021Z" fill="black"/>
<path d="M19.2202 10.3624L17.2202 12.3624M14.2202 10.3624H19.2202H14.2202ZM19.2202 10.3624L17.2202 8.36237L19.2202 10.3624Z" stroke="black" stroke-width="2" stroke-linecap="round" stroke-linejoin="round"/>
</svg>
