<svg width="22" height="20" viewBox="0 0 22 20" fill="none" xmlns="http://www.w3.org/2000/svg">
<path d="M0.694824 9.43762C0.694824 10.0187 1.11816 10.4586 1.78223 10.4586C2.08936 10.4586 2.38818 10.3092 2.63721 10.0934L10.772 3.27844C11.0625 3.02112 11.3862 3.02112 11.6934 3.27844L19.8115 10.0934C20.0605 10.3092 20.3594 10.4586 20.6582 10.4586C21.2974 10.4586 21.7456 10.0602 21.7456 9.44592C21.7456 9.11389 21.5962 8.79846 21.314 8.56604L18.9731 6.59045V2.96301C18.9731 2.57288 18.7158 2.32385 18.334 2.32385H16.8066C16.4165 2.32385 16.1592 2.57288 16.1592 2.96301V4.23303L12.6812 1.31116C11.8013 0.572388 10.6558 0.572388 9.77588 1.31116L1.12646 8.57434C0.844238 8.80676 0.694824 9.13049 0.694824 9.43762ZM3.55029 16.9913C3.55029 18.2531 4.38867 19.0416 5.7168 19.0416H16.7236C18.0518 19.0416 18.8901 18.2531 18.8901 16.9913V11.1061L11.7598 5.12122C11.4194 4.83069 11.021 4.83899 10.689 5.12122L3.55029 11.1061V16.9913ZM13.4531 16.7506H8.979V11.6871C8.979 11.2887 9.24463 11.0314 9.64307 11.0314H12.8057C13.2041 11.0314 13.4531 11.2887 13.4531 11.6871V16.7506Z" fill="black"/>
</svg>
