<svg width="23" height="22" viewBox="0 0 23 22" fill="none" xmlns="http://www.w3.org/2000/svg">
<path d="M8.2207 1.91028H18.8042C18.7378 1.1134 18.2397 0.673462 17.3931 0.673462H9.63184C8.78516 0.673462 8.28711 1.1134 8.2207 1.91028ZM6.56055 4.47522H20.4644C20.3564 3.62854 19.8916 3.13049 18.9204 3.13049H8.09619C7.125 3.13049 6.66846 3.62854 6.56055 4.47522ZM9.36621 19.8566H19.3936C21.228 19.8566 22.2241 18.8605 22.2241 17.0426V8.65881C22.2241 6.84924 21.228 5.85315 19.3936 5.85315H7.62305C5.78857 5.85315 4.79248 6.84924 4.79248 8.65881V11.0079C7.87207 11.0079 10.4121 13.5563 10.4121 16.6276C10.4121 17.8229 10.022 18.9352 9.36621 19.8566ZM4.80078 21.0021C7.1748 21.0021 9.16699 19.0182 9.16699 16.6276C9.16699 14.2369 7.19141 12.2614 4.80078 12.2614C2.40186 12.2614 0.42627 14.2369 0.42627 16.6276C0.42627 19.0265 2.40186 21.0021 4.80078 21.0021ZM3.32324 18.3043V14.9508C3.32324 14.5275 3.74658 14.3365 4.10352 14.5524L6.80957 16.1959C7.1748 16.42 7.18311 16.86 6.85107 17.0592L4.10352 18.7028C3.74658 18.9186 3.32324 18.7277 3.32324 18.3043Z" fill="#E54545"/>
</svg>
