<svg width="22" height="19" viewBox="0 0 22 19" fill="none" xmlns="http://www.w3.org/2000/svg">
<path d="M0.694824 8.93762C0.694824 9.51868 1.11816 9.95862 1.78223 9.95862C2.08936 9.95862 2.38818 9.8092 2.63721 9.59338L10.772 2.77844C11.0625 2.52112 11.3862 2.52112 11.6934 2.77844L19.8115 9.59338C20.0605 9.8092 20.3594 9.95862 20.6582 9.95862C21.2974 9.95862 21.7456 9.56018 21.7456 8.94592C21.7456 8.61389 21.5962 8.29846 21.314 8.06604L18.9731 6.09045V2.46301C18.9731 2.07288 18.7158 1.82385 18.334 1.82385H16.8066C16.4165 1.82385 16.1592 2.07288 16.1592 2.46301V3.73303L12.6812 0.811157C11.8013 0.0723877 10.6558 0.0723877 9.77588 0.811157L1.12646 8.07434C0.844238 8.30676 0.694824 8.63049 0.694824 8.93762ZM3.55029 16.4913C3.55029 17.7531 4.38867 18.5416 5.7168 18.5416H16.7236C18.0518 18.5416 18.8901 17.7531 18.8901 16.4913V10.6061L11.7598 4.62122C11.4194 4.33069 11.021 4.33899 10.689 4.62122L3.55029 10.6061V16.4913ZM13.4531 16.2506H8.979V11.1871C8.979 10.7887 9.24463 10.5314 9.64307 10.5314H12.8057C13.2041 10.5314 13.4531 10.7887 13.4531 11.1871V16.2506Z" fill="#E54545"/>
</svg>
