<svg width="19" height="14" viewBox="0 0 19 14" fill="none" xmlns="http://www.w3.org/2000/svg">
<path fill-rule="evenodd" clip-rule="evenodd" d="M0.26416 9.40651C0.26416 4.39194 4.2501 0.406006 9.26466 0.406006C14.2792 0.406006 18.2652 4.39194 18.2652 9.40651H16.9794C16.9794 5.16341 13.5078 1.69179 9.26466 1.69179C5.02157 1.69179 1.54995 5.16341 1.54995 9.40651H0.26416ZM5.40731 9.40651C5.40731 7.22067 7.07883 5.54915 9.26466 5.54915C11.4505 5.54915 13.122 7.22067 13.122 9.40651C13.122 11.5923 11.4505 13.2639 9.26466 13.2639C7.07883 13.2639 5.40731 11.5923 5.40731 9.40651ZM6.69309 9.40651C6.69309 10.8209 7.8503 11.9781 9.26466 11.9781C10.679 11.9781 11.8362 10.8209 11.8362 9.40651C11.8362 7.99214 10.679 6.83494 9.26466 6.83494C7.8503 6.83494 6.69309 7.99214 6.69309 9.40651Z" fill="black"/>
</svg>
