<svg width="19" height="16" viewBox="0 0 19 16" fill="none" xmlns="http://www.w3.org/2000/svg">
<path fill-rule="evenodd" clip-rule="evenodd" d="M9.29688 0.494141C7.41183 0.494141 5.77813 0.996819 4.39576 2.00218L5.40112 2.88186C6.53214 2.12785 7.78884 1.75084 9.29688 1.75084C13.444 1.75084 16.8371 5.14392 16.8371 9.29102H18.0938C18.0938 4.3899 14.198 0.494141 9.29688 0.494141ZM0.5 1.75084L2.51071 3.63588C1.25402 5.14392 0.5 7.15463 0.5 9.29102H1.7567C1.7567 7.40597 2.38504 5.77227 3.51607 4.51557L6.2808 7.02896C5.77813 7.65731 5.52679 8.41133 5.52679 9.29102C5.52679 11.4274 7.16049 13.0611 9.29688 13.0611C10.3022 13.0611 11.1819 12.6841 11.8103 12.0557L15.5804 15.5745L16.46 14.6948L1.37969 0.87115L0.5 1.75084V1.75084ZM7.16049 7.90865L10.8049 11.3017C10.4279 11.5531 9.92522 11.8044 9.29688 11.8044C7.91451 11.8044 6.78348 10.6734 6.78348 9.29102C6.78348 8.78834 6.90915 8.28566 7.16049 7.90865V7.90865ZM13.067 9.91936L11.8103 8.78834C11.5589 7.78298 10.6792 6.90329 9.54821 6.77762L8.29152 5.6466C8.66853 5.52093 8.91987 5.52093 9.29688 5.52093C11.4333 5.52093 13.067 7.15463 13.067 9.29102V9.91936Z" fill="black"/>
</svg>
