<svg width="20" height="24" viewBox="0 0 20 24" fill="none" xmlns="http://www.w3.org/2000/svg">
<path d="M9.94737 0.389648C11.1616 0.389648 12.3261 0.871991 13.1846 1.73057C14.0432 2.58914 14.5255 3.75362 14.5255 4.96782V6.49388H16.0516C16.8611 6.49388 17.6374 6.81544 18.2098 7.38783C18.7822 7.96021 19.1037 8.73653 19.1037 9.546V20.2284C19.1037 21.0379 18.7822 21.8142 18.2098 22.3866C17.6374 22.959 16.8611 23.2805 16.0516 23.2805H3.84313C3.03366 23.2805 2.25734 22.959 1.68496 22.3866C1.11258 21.8142 0.791016 21.0379 0.791016 20.2284V9.546C0.791016 8.73653 1.11258 7.96021 1.68496 7.38783C2.25734 6.81544 3.03366 6.49388 3.84313 6.49388H5.36919V4.96782C5.36919 3.75362 5.85153 2.58914 6.71011 1.73057C7.56868 0.871991 8.73316 0.389648 9.94737 0.389648V0.389648ZM16.0516 8.01994H3.84313C3.4384 8.01994 3.05024 8.18072 2.76405 8.46691C2.47786 8.75311 2.31707 9.14127 2.31707 9.546V20.2284C2.31707 20.6331 2.47786 21.0213 2.76405 21.3075C3.05024 21.5937 3.4384 21.7545 3.84313 21.7545H16.0516C16.4563 21.7545 16.8445 21.5937 17.1307 21.3075C17.4169 21.0213 17.5777 20.6331 17.5777 20.2284V9.546C17.5777 9.14127 17.4169 8.75311 17.1307 8.46691C16.8445 8.18072 16.4563 8.01994 16.0516 8.01994ZM9.94737 13.3611C10.3521 13.3611 10.7403 13.5219 11.0265 13.8081C11.3126 14.0943 11.4734 14.4825 11.4734 14.8872C11.4734 15.2919 11.3126 15.6801 11.0265 15.9663C10.7403 16.2525 10.3521 16.4133 9.94737 16.4133C9.54263 16.4133 9.15447 16.2525 8.86828 15.9663C8.58209 15.6801 8.42131 15.2919 8.42131 14.8872C8.42131 14.4825 8.58209 14.0943 8.86828 13.8081C9.15447 13.5219 9.54263 13.3611 9.94737 13.3611V13.3611ZM9.94737 1.91571C9.1379 1.91571 8.36158 2.23727 7.7892 2.80965C7.21681 3.38203 6.89525 4.15835 6.89525 4.96782V6.49388H12.9995V4.96782C12.9995 4.15835 12.6779 3.38203 12.1055 2.80965C11.5332 2.23727 10.7568 1.91571 9.94737 1.91571Z" fill="black"/>
</svg>
