<svg width="35" height="35" viewBox="0 0 35 35" fill="none" xmlns="http://www.w3.org/2000/svg">
<path d="M17.5272 0.760498C8.15432 0.760498 0.554443 8.36037 0.554443 17.7333C0.554443 27.1062 8.15432 34.7061 17.5272 34.7061C26.9002 34.7061 34.5 27.1062 34.5 17.7333C34.5 8.36037 26.9002 0.760498 17.5272 0.760498ZM24.8581 12.1906L16.8794 23.2533C16.7679 23.4089 16.6209 23.5357 16.4506 23.6232C16.2802 23.7107 16.0915 23.7563 15.9001 23.7563C15.7086 23.7563 15.5199 23.7107 15.3495 23.6232C15.1792 23.5357 15.0322 23.4089 14.9207 23.2533L10.1964 16.7066C10.0524 16.5058 10.1964 16.2254 10.4426 16.2254H12.2195C12.6059 16.2254 12.9734 16.4111 13.2007 16.7293L15.8982 20.4724L21.8538 12.2134C22.0811 11.8989 22.4448 11.7095 22.835 11.7095H24.6119C24.8581 11.7095 25.0021 11.9898 24.8581 12.1906Z" fill="#62F21E"/>
</svg>
