<svg width="28" height="32" viewBox="0 0 28 32" fill="none" xmlns="http://www.w3.org/2000/svg">
<path d="M27.0419 8.49903L13.5273 0.696411L9.62603 7.45368L11.8785 8.75412L10.578 11.0065L12.8304 12.307L10.2296 16.8118L7.97714 15.5114L6.67671 17.7638L4.42428 16.4634L0.522972 23.2206L14.0375 31.0233L17.9388 24.266L15.6864 22.9656L16.9868 20.7131L14.7344 19.4127L17.3353 14.9079L19.5877 16.2083L20.8881 13.9559L23.1406 15.2563L27.0419 8.49903ZM20.8881 13.9559L18.6357 12.6554L17.3353 14.9079L12.8304 12.307L14.1309 10.0546L11.8785 8.75412L14.4793 4.24927L23.489 9.45102L20.8881 13.9559ZM14.7344 19.4127L13.434 21.6651L15.6864 22.9656L13.0855 27.4704L4.07583 22.2687L6.67671 17.7638L8.92913 19.0642L10.2296 16.8118L14.7344 19.4127Z" fill="#F24E1E"/>
</svg>
